<svg xmlns="http://www.w3.org/2000/svg" width="24" height="24" viewBox="0 0 24 24">
  <path id="iconfinder_00-ELASTOFONT-STORE-READY_user-circle_2703062" d="M25,13A12,12,0,1,0,4.674,21.622a.732.732,0,0,0,.189.172,11.93,11.93,0,0,0,16.275,0,.732.732,0,0,0,.189-.172A11.957,11.957,0,0,0,25,13ZM13,2.5a10.485,10.485,0,0,1,8.23,17,7.152,7.152,0,0,0-5.028-4.5,5.474,5.474,0,1,0-6.4,0A7.152,7.152,0,0,0,4.77,19.5,10.485,10.485,0,0,1,13,2.5ZM9.026,10.581A3.974,3.974,0,1,1,13,14.547,3.974,3.974,0,0,1,9.026,10.581Zm-3,10.251c.225-2.75,3.142-4.785,6.969-4.785s6.744,2.035,6.969,4.785a10.436,10.436,0,0,1-13.938,0Z" transform="translate(-1 -1)" fill="#aaa"/>
</svg>
